<?xml version="1.0" standalone="no"?>
<!DOCTYPE svg PUBLIC "-//W3C//DTD SVG 20010904//EN"
 "http://www.w3.org/TR/2001/REC-SVG-20010904/DTD/svg10.dtd">
<svg version="1.0" xmlns="http://www.w3.org/2000/svg"
 width="2000.000000pt" height="2000.000000pt" viewBox="0 0 2000.000000 2000.000000"
 preserveAspectRatio="xMidYMid meet">
<metadata>
Created by potrace 1.14, written by Peter Selinger 2001-2017
</metadata>
<g transform="translate(0.000000,2000.000000) scale(0.100000,-0.100000)"
fill="#000000" stroke="none">
<path d="M9838 18155 c-2 -1 -40 -5 -85 -9 -107 -8 -293 -40 -418 -72 -95 -23
-327 -95 -370 -114 -11 -5 -58 -25 -105 -45 -160 -68 -449 -233 -527 -300 -7
-5 -33 -26 -59 -45 -224 -167 -455 -414 -618 -660 -100 -152 -117 -181 -199
-346 -122 -244 -201 -497 -243 -784 -8 -58 -17 -118 -19 -135 -24 -160 -23
-557 1 -715 70 -462 216 -861 472 -1290 71 -119 218 -341 269 -405 30 -39 33
-43 68 -90 17 -22 32 -42 35 -45 3 -3 34 -41 70 -85 88 -109 229 -272 320
-369 148 -159 491 -494 616 -603 12 -10 50 -43 85 -74 65 -58 149 -130 183
-158 10 -9 23 -21 30 -26 82 -74 608 -491 652 -518 7 -4 61 31 125 79 110 83
367 286 419 330 14 12 88 75 165 140 77 65 156 132 175 150 19 17 62 55 95 85
33 29 85 76 115 103 81 75 467 461 530 531 141 156 214 240 305 355 33 41 62
77 65 80 18 17 180 245 245 346 43 65 85 130 94 144 10 14 20 32 24 40 4 8 21
38 38 65 89 148 227 456 305 680 35 103 85 303 99 398 4 23 11 65 16 92 34
179 31 635 -6 873 -3 17 -8 49 -11 70 -15 100 -71 321 -111 437 -37 108 -179
415 -225 490 -93 146 -173 263 -240 347 -88 111 -264 292 -368 379 -36 30 -67
56 -70 59 -39 39 -277 197 -395 262 -303 166 -693 292 -1030 333 -27 4 -61 9
-75 11 -27 6 -436 14 -442 9z m397 -640 c96 -15 214 -37 270 -52 33 -8 71 -17
85 -20 13 -2 84 -24 156 -48 215 -72 397 -167 586 -307 111 -82 117 -87 238
-208 137 -137 254 -288 352 -455 46 -77 139 -279 167 -362 32 -95 74 -264 86
-346 3 -27 8 -57 10 -66 18 -96 26 -441 13 -582 -29 -313 -181 -729 -398
-1089 -112 -187 -312 -469 -415 -586 -5 -7 -17 -20 -25 -31 -129 -160 -253
-296 -485 -528 -218 -217 -272 -268 -445 -421 -192 -169 -413 -354 -423 -354
-3 0 -12 6 -19 13 -7 6 -35 30 -63 52 -437 350 -942 840 -1239 1200 -28 33
-53 62 -57 65 -17 13 -241 318 -314 430 -253 384 -433 803 -480 1115 -4 22 -8
51 -10 65 -19 127 -23 316 -11 490 19 282 92 569 196 780 275 557 716 948
1275 1131 84 28 249 72 305 82 111 21 153 27 205 33 33 3 62 7 64 9 5 6 331
-3 376 -10z"/>
<path d="M10028 16064 c-2 -1 -33 -4 -68 -5 -327 -12 -631 -285 -677 -609 -9
-60 -9 -194 0 -250 23 -145 94 -279 206 -391 56 -56 149 -122 206 -148 17 -7
37 -17 45 -21 72 -35 262 -55 378 -39 282 39 533 267 602 546 26 109 22 298
-10 398 -69 218 -251 407 -456 475 -59 20 -220 51 -226 44z"/>
<path d="M10393 10870 c-57 -10 -214 -51 -350 -90 -137 -40 -340 -99 -453
-132 -113 -33 -212 -61 -220 -63 -19 -5 -135 -39 -395 -115 -115 -34 -280 -82
-365 -107 -85 -24 -193 -56 -240 -70 -47 -13 -114 -33 -150 -43 -36 -10 -135
-38 -220 -63 -85 -25 -258 -76 -385 -112 -126 -37 -320 -93 -430 -125 -283
-82 -559 -163 -705 -205 -69 -20 -231 -67 -360 -105 -129 -37 -361 -105 -515
-150 -154 -44 -287 -83 -295 -85 -8 -2 -76 -22 -150 -44 -74 -21 -184 -53
-245 -71 -60 -17 -146 -42 -190 -55 -44 -13 -199 -58 -345 -101 -146 -42 -395
-114 -555 -161 -308 -90 -381 -111 -405 -117 -67 -19 -201 -57 -225 -65 -16
-6 -379 -111 -805 -235 -778 -225 -938 -272 -1280 -372 -316 -93 -420 -161
-420 -275 0 -69 48 -133 137 -181 26 -15 167 -61 313 -103 146 -42 319 -92
385 -112 331 -96 575 -167 624 -179 29 -8 57 -17 62 -20 5 -3 17 -7 26 -9 10
-2 126 -35 258 -74 556 -162 730 -212 915 -266 231 -67 527 -153 660 -192 l95
-28 108 -185 c59 -102 113 -195 120 -208 6 -12 235 -403 507 -868 272 -466
510 -874 529 -908 51 -93 69 -114 104 -125 18 -5 76 -23 130 -40 99 -31 142
-45 462 -146 99 -31 245 -77 325 -103 80 -25 150 -47 156 -48 6 -1 89 -27 185
-57 170 -55 699 -221 1009 -317 162 -51 569 -179 895 -282 251 -79 313 -95
425 -113 139 -22 310 -26 419 -11 80 11 156 32 806 223 194 56 352 102 475
138 303 87 370 106 430 124 36 11 108 32 160 47 52 15 147 42 210 61 63 19
122 36 130 38 8 2 107 30 220 63 215 64 506 148 1330 387 107 31 222 64 255
74 33 10 87 26 120 35 33 10 89 26 125 37 144 42 516 151 530 154 8 2 119 33
245 70 127 37 358 105 515 150 157 46 372 108 478 139 105 31 276 80 380 110
216 63 355 104 642 188 113 33 219 63 235 68 26 6 532 153 915 265 338 99 803
234 830 241 15 3 175 50 410 119 248 73 350 147 350 255 0 41 -32 101 -71 134
-53 45 -178 102 -274 125 -22 5 -96 26 -164 45 -373 109 -727 212 -1076 313
-384 111 -493 142 -630 183 -77 23 -147 43 -155 45 -8 2 -71 19 -140 40 -69
20 -132 38 -140 40 -8 2 -71 20 -140 40 -188 55 -224 65 -240 70 -8 2 -107 31
-220 63 l-205 59 -128 214 c-70 118 -132 223 -137 234 -6 11 -20 36 -33 56
-12 21 -254 428 -537 907 l-515 870 -55 17 c-30 10 -59 18 -65 19 -5 2 -55 17
-110 35 -55 18 -140 46 -190 61 -49 15 -234 74 -410 130 -176 56 -347 110
-380 120 -33 11 -118 38 -190 60 -71 23 -172 55 -222 71 -51 16 -135 42 -185
58 -203 65 -356 113 -648 206 -424 134 -459 145 -690 218 -205 66 -282 89
-310 93 -8 2 -51 10 -95 19 -124 25 -451 28 -582 5z m456 -569 c146 -49 1370
-453 1874 -618 147 -48 267 -90 267 -93 0 -4 -274 -86 -500 -150 -36 -10 -135
-39 -220 -63 -85 -25 -281 -82 -435 -127 -154 -45 -334 -97 -400 -116 -168
-49 -393 -115 -650 -189 -121 -35 -346 -101 -500 -146 -154 -45 -293 -85 -310
-89 -16 -5 -93 -27 -170 -50 -77 -23 -223 -65 -325 -95 -102 -29 -273 -79
-380 -110 -107 -32 -208 -61 -225 -65 -16 -5 -109 -31 -205 -60 -96 -28 -197
-57 -225 -65 -54 -15 -293 -85 -550 -160 -88 -26 -169 -50 -180 -52 -11 -3
-49 -14 -85 -25 -36 -11 -72 -21 -80 -23 -8 -2 -116 -33 -240 -70 -124 -36
-233 -68 -243 -70 -10 -2 -55 -15 -100 -29 -45 -14 -208 -61 -362 -105 -154
-45 -309 -90 -345 -101 -36 -11 -245 -72 -465 -135 -220 -64 -429 -124 -465
-135 -258 -77 -656 -190 -669 -190 -9 0 -83 21 -166 46 -82 25 -170 52 -195
59 -71 20 -619 185 -680 204 -30 10 -355 107 -722 217 -366 109 -661 202 -655
206 7 3 75 24 152 46 118 34 626 182 734 214 18 5 41 11 50 13 9 2 45 13 81
24 36 11 166 49 290 85 124 35 281 81 350 101 169 50 841 245 860 250 8 2 40
11 70 20 30 9 69 20 85 24 17 5 102 30 190 56 141 41 289 85 350 102 11 3 81
23 155 45 74 22 203 59 285 83 83 24 292 85 465 135 173 50 320 93 325 94 6 1
42 12 80 23 63 19 555 162 990 288 88 26 237 69 330 96 94 28 179 52 189 54
11 3 40 11 66 20 26 9 55 17 66 20 10 2 42 11 69 19 83 24 434 126 520 151 44
13 172 50 285 83 113 33 354 103 535 156 182 52 425 123 540 157 301 88 298
87 324 88 13 1 90 -21 170 -48z m2893 -1259 c43 -70 190 -307 328 -527 138
-220 254 -407 258 -415 4 -9 89 -147 190 -307 163 -262 192 -313 178 -313 -3
0 -60 -16 -128 -36 -145 -43 -217 -63 -238 -69 -29 -7 -944 -273 -1435 -417
-157 -46 -265 -77 -805 -233 -107 -31 -216 -63 -241 -71 -25 -8 -54 -16 -65
-19 -10 -2 -41 -11 -69 -19 -27 -8 -174 -50 -325 -94 -151 -44 -329 -96 -395
-115 -66 -20 -205 -60 -310 -91 -104 -30 -230 -67 -280 -81 -49 -15 -99 -29
-110 -32 -11 -3 -63 -18 -115 -34 -52 -15 -198 -58 -325 -94 -126 -37 -322
-94 -435 -127 -113 -33 -218 -63 -235 -68 -16 -4 -77 -21 -135 -38 -58 -17
-159 -46 -225 -65 -66 -20 -176 -52 -245 -72 -69 -20 -132 -39 -140 -41 -8 -2
-98 -28 -200 -58 -168 -49 -318 -92 -795 -231 -88 -26 -227 -66 -310 -90 -82
-24 -171 -50 -198 -58 -26 -9 -49 -15 -50 -15 -1 -1 -9 -3 -17 -5 -8 -3 -123
-36 -255 -74 -220 -64 -241 -69 -256 -54 -12 12 -534 846 -628 1003 -9 15 -67
109 -130 210 -63 101 -152 244 -198 318 l-84 135 58 18 c69 21 544 158 558
162 6 1 17 5 25 8 8 3 47 15 85 25 62 17 339 98 710 206 66 19 206 59 310 90
105 30 244 70 310 90 66 19 192 56 280 81 88 26 252 74 365 107 113 33 228 66
255 73 28 8 165 47 305 88 665 195 1031 301 1090 317 36 10 88 25 115 33 28 8
142 42 255 75 434 126 672 196 855 249 321 93 415 120 545 158 69 20 132 38
140 40 8 2 101 29 205 60 105 31 197 58 205 60 42 11 441 127 480 139 25 8
297 87 605 176 308 89 565 163 570 165 6 2 12 4 15 4 3 0 40 -57 82 -127z
m1673 -1991 c17 -5 534 -161 1150 -346 616 -185 1125 -338 1130 -339 59 -14
96 -29 89 -35 -5 -4 -54 -20 -109 -36 -55 -15 -237 -67 -405 -117 -168 -49
-314 -91 -324 -93 -11 -3 -40 -11 -65 -19 -25 -8 -210 -62 -411 -120 -201 -58
-450 -131 -555 -162 -104 -30 -197 -57 -205 -59 -8 -2 -69 -19 -135 -38 -66
-20 -192 -57 -280 -82 -88 -25 -261 -75 -385 -111 -124 -36 -252 -74 -285 -84
-33 -10 -123 -37 -200 -59 -77 -22 -248 -71 -380 -109 -592 -172 -709 -206
-850 -247 -300 -87 -471 -136 -500 -146 -16 -5 -232 -68 -480 -140 -686 -198
-1097 -317 -1240 -359 -71 -21 -249 -73 -395 -115 -146 -42 -303 -88 -350
-101 -47 -14 -137 -40 -200 -59 -125 -37 -273 -79 -305 -88 -11 -3 -98 -28
-193 -56 -95 -28 -180 -51 -187 -51 -8 0 -227 70 -487 156 -725 240 -848 280
-1348 444 -256 84 -468 156 -472 159 -4 4 68 28 160 54 92 26 221 64 287 83
66 20 242 71 390 114 149 43 374 108 500 145 193 57 427 124 485 140 30 8 708
206 805 235 167 49 519 152 540 157 11 3 65 19 120 35 55 16 107 31 115 33 8
2 101 29 205 60 105 31 197 58 205 60 8 2 101 28 205 59 796 231 1180 342
1295 376 36 11 175 51 310 90 135 38 281 81 325 94 44 13 145 43 225 66 80 23
222 64 315 91 186 55 230 68 665 193 162 47 311 91 330 96 213 66 821 239 840
239 14 1 39 -3 55 -8z"/>
</g>
</svg>
